<svg xmlns="http://www.w3.org/2000/svg" viewBox="0 0 24 24">
  <path fill="currentColor" d="M5.5 3.5C4.95 3.5 4.5 3.95 4.5 4.5 4.5 5.05 4.95 5.5 5.5 5.5L5.5 4.5 5.5 3.5ZM5.5 18.5C4.95 18.5 4.5 18.95 4.5 19.5 4.5 20.05 4.95 20.5 5.5 20.5L5.5 19.5 5.5 18.5ZM7.36 12L7.36 13 14.75 13 14.75 12 14.75 11 7.36 11 7.36 12ZM14.75 19.5L14.75 18.5 7.36 18.5 7.36 19.5 7.36 20.5 14.75 20.5 14.75 19.5ZM7.36 19.5L8.36 19.5 8.36 12 7.36 12 6.36 12 6.36 19.5 7.36 19.5ZM7.36 4.5L7.36 5.5 13.86 5.5 13.86 4.5 13.86 3.5 7.36 3.5 7.36 4.5ZM13.86 12L13.86 11 7.36 11 7.36 12 7.36 13 13.86 13 13.86 12ZM7.36 12L8.36 12 8.36 4.5 7.36 4.5 6.36 4.5 6.36 12 7.36 12ZM17.57 8.25L16.57 8.25C16.57 9.78 15.35 11 13.86 11L13.86 12 13.86 13C16.47 13 18.57 10.86 18.57 8.25L17.57 8.25ZM13.86 4.5L13.86 5.5C15.35 5.5 16.57 6.72 16.57 8.25L17.57 8.25 18.57 8.25C18.57 5.64 16.47 3.5 13.86 3.5L13.86 4.5ZM7.36 4.5L7.36 3.5 5.5 3.5 5.5 4.5 5.5 5.5 7.36 5.5 7.36 4.5ZM7.36 19.5L7.36 18.5 5.5 18.5 5.5 19.5 5.5 20.5 7.36 20.5 7.36 19.5ZM18.5 15.75L17.5 15.75C17.5 17.27 16.27 18.5 14.75 18.5L14.75 19.5 14.75 20.5C17.37 20.5 19.5 18.37 19.5 15.75L18.5 15.75ZM14.75 12L14.75 13C16.27 13 17.5 14.23 17.5 15.75L18.5 15.75 19.5 15.75C19.5 13.13 17.37 11 14.75 11L14.75 12Z"/>
</svg>
