<svg xmlns="http://www.w3.org/2000/svg" viewBox="0 0 24 24">
  <path fill="currentColor" d="M9.7961 13.72L9.4661 13.22 9.4761 13.21 9.7961 13.72ZM9.9461 13.45L10.5461 13.45 10.5461 13.46 9.9461 13.45ZM9.9461 4.9L9.3461 4.9 9.9461 4.9ZM11.8861 3L11.8861 2.4 11.8861 3ZM13.8361 13.45L13.2361 13.46 13.2361 13.45 13.8361 13.45ZM13.9861 13.72L14.2961 13.21 14.3061 13.22 13.9861 13.72ZM15.7761 17.14L16.3761 17.16 16.3761 17.17 15.7761 17.14ZM7.9961 16.97L7.3961 16.97 7.3961 16.97 7.9961 16.97ZM11.2861 6.17C11.2861 5.84 11.5561 5.57 11.8861 5.57 12.2161 5.57 12.4861 5.84 12.4861 6.17L11.8861 6.17 11.2861 6.17ZM12.4861 14.97C12.4861 15.3 12.2161 15.57 11.8861 15.57 11.5561 15.57 11.2861 15.3 11.2861 14.97L11.8861 14.97 12.4861 14.97ZM9.7961 13.72L9.4761 13.21C9.4361 13.24 9.4061 13.27 9.3761 13.31L9.9061 13.61 10.4261 13.9C10.3461 14.04 10.2361 14.15 10.1061 14.23L9.7961 13.72ZM9.9061 13.61L9.3761 13.31C9.3561 13.36 9.3461 13.4 9.3461 13.45L9.9461 13.45 10.5461 13.46C10.5461 13.61 10.5061 13.77 10.4261 13.9L9.9061 13.61ZM9.9461 13.45L9.3461 13.45 9.3461 4.9 9.9461 4.9 10.5461 4.9 10.5461 13.45 9.9461 13.45ZM9.9461 4.9L9.3461 4.9C9.3461 4.24 9.6161 3.6 10.0961 3.13L10.5161 3.56 10.9361 3.99C10.6861 4.23 10.5461 4.56 10.5461 4.9L9.9461 4.9ZM10.5161 3.56L10.0961 3.13C10.5761 2.66 11.2161 2.4 11.8861 2.4L11.8861 3 11.8861 3.6C11.5261 3.6 11.1861 3.74 10.9361 3.99L10.5161 3.56ZM11.8861 3L11.8861 2.4C12.5561 2.4 13.2061 2.66 13.6861 3.13L13.2661 3.56 12.8461 3.99C12.5961 3.74 12.2461 3.6 11.8861 3.6L11.8861 3ZM13.2661 3.56L13.6861 3.13C14.1561 3.6 14.4361 4.24 14.4361 4.9L13.8361 4.9 13.2361 4.9C13.2361 4.56 13.0961 4.23 12.8461 3.99L13.2661 3.56ZM13.8361 4.9L14.4361 4.9 14.4361 13.45 13.8361 13.45 13.2361 13.45 13.2361 4.9 13.8361 4.9ZM13.8361 13.45L14.4361 13.45C14.4361 13.4 14.4161 13.36 14.3961 13.31L13.8761 13.61 13.3461 13.9C13.2761 13.77 13.2361 13.61 13.2361 13.46L13.8361 13.45ZM13.8761 13.61L14.3961 13.31C14.3761 13.27 14.3361 13.24 14.2961 13.21L13.9861 13.72 13.6661 14.23C13.5361 14.15 13.4261 14.04 13.3461 13.9L13.8761 13.61ZM13.9861 13.72L14.3061 13.22C14.9661 13.64 15.5061 14.23 15.8761 14.92L15.3361 15.2 14.8061 15.48C14.5461 14.97 14.1461 14.54 13.6561 14.23L13.9861 13.72ZM15.3361 15.2L15.8761 14.92C16.2361 15.61 16.4061 16.39 16.3761 17.16L15.7761 17.14 15.1761 17.11C15.1961 16.54 15.0761 15.98 14.8061 15.48L15.3361 15.2ZM15.7761 17.14L16.3761 17.17C16.3161 18.32 15.8061 19.4 14.9461 20.19L14.5461 19.75 14.1361 19.3C14.7661 18.73 15.1361 17.94 15.1761 17.11L15.7761 17.14ZM14.5461 19.75L14.9461 20.19C14.0861 20.97 12.9561 21.4 11.7861 21.37L11.7961 20.77 11.8161 20.17C12.6761 20.19 13.5061 19.88 14.1361 19.3L14.5461 19.75ZM11.7961 20.77L11.7861 21.37C10.6161 21.35 9.5061 20.87 8.6861 20.05L9.1061 19.63 9.5361 19.2C10.1361 19.8 10.9461 20.15 11.8161 20.17L11.7961 20.77ZM9.1061 19.63L8.6861 20.05C7.8661 19.23 7.3961 18.12 7.3961 16.97L7.9961 16.97 8.5961 16.97C8.5961 17.8 8.9361 18.6 9.5361 19.2L9.1061 19.63ZM7.9961 16.97L7.3961 16.97C7.3961 16.22 7.5861 15.49 7.9561 14.83L8.4761 15.12 9.0061 15.41C8.7361 15.89 8.5961 16.42 8.5961 16.97L7.9961 16.97ZM8.4761 15.12L7.9561 14.83C8.3161 14.18 8.8361 13.62 9.4661 13.22L9.7961 13.72 10.1161 14.23C9.6461 14.53 9.2661 14.93 9.0061 15.41L8.4761 15.12ZM11.8861 6.17L12.4861 6.17 12.4861 14.97 11.8861 14.97 11.2861 14.97 11.2861 6.17 11.8861 6.17ZM13.8861 16.97L14.4861 16.97C14.4861 18.4 13.3261 19.57 11.8861 19.57L11.8861 18.97 11.8861 18.37C12.6661 18.37 13.2861 17.74 13.2861 16.97L13.8861 16.97ZM11.8861 18.97L11.8861 19.57C10.4561 19.57 9.2861 18.4 9.2861 16.97L9.8861 16.97 10.4861 16.97C10.4861 17.74 11.1161 18.37 11.8861 18.37L11.8861 18.97ZM9.8861 16.97L9.2861 16.97C9.2861 15.53 10.4561 14.37 11.8861 14.37L11.8861 14.97 11.8861 15.57C11.1161 15.57 10.4861 16.19 10.4861 16.97L9.8861 16.97ZM11.8861 14.97L11.8861 14.37C13.3261 14.37 14.4861 15.53 14.4861 16.97L13.8861 16.97 13.2861 16.97C13.2861 16.19 12.6661 15.57 11.8861 15.57L11.8861 14.97Z"/>
</svg>
