<svg xmlns="http://www.w3.org/2000/svg" viewBox="0 0 24 24">
  <path fill="currentColor" d="M4 5.4C3.67 5.4 3.4 5.67 3.4 6 3.4 6.33 3.67 6.6 4 6.6L4 6 4 5.4ZM20 6.6C20.33 6.6 20.6 6.33 20.6 6 20.6 5.67 20.33 5.4 20 5.4L20 6 20 6.6ZM10 11.4C9.67 11.4 9.4 11.67 9.4 12 9.4 12.33 9.67 12.6 10 12.6L10 12 10 11.4ZM20 12.6C20.33 12.6 20.6 12.33 20.6 12 20.6 11.67 20.33 11.4 20 11.4L20 12 20 12.6ZM4 17.4C3.67 17.4 3.4 17.67 3.4 18 3.4 18.33 3.67 18.6 4 18.6L4 18 4 17.4ZM20 18.6C20.33 18.6 20.6 18.33 20.6 18 20.6 17.67 20.33 17.4 20 17.4L20 18 20 18.6ZM4 6L4 6.6 20 6.6 20 6 20 5.4 4 5.4 4 6ZM10 12L10 12.6 20 12.6 20 12 20 11.4 10 11.4 10 12ZM4 18L4 18.6 20 18.6 20 18 20 17.4 4 17.4 4 18Z"/>
</svg>
