<svg xmlns="http://www.w3.org/2000/svg" viewBox="0 0 24 24">
  <path fill="currentColor" d="M7.1 4C7.1 3.67 6.83 3.4 6.5 3.4 6.17 3.4 5.9 3.67 5.9 4L6.5 4 7.1 4ZM18.1 4C18.1 3.67 17.83 3.4 17.5 3.4 17.17 3.4 16.9 3.67 16.9 4L17.5 4 18.1 4ZM5 3.4C4.67 3.4 4.4 3.67 4.4 4 4.4 4.33 4.67 4.6 5 4.6L5 4 5 3.4ZM8 4.6C8.33 4.6 8.6 4.33 8.6 4 8.6 3.67 8.33 3.4 8 3.4L8 4 8 4.6ZM16 3.4C15.67 3.4 15.4 3.67 15.4 4 15.4 4.33 15.67 4.6 16 4.6L16 4 16 3.4ZM19 4.6C19.33 4.6 19.6 4.33 19.6 4 19.6 3.67 19.33 3.4 19 3.4L19 4 19 4.6ZM4 19.4C3.67 19.4 3.4 19.67 3.4 20 3.4 20.33 3.67 20.6 4 20.6L4 20 4 19.4ZM20 20.6C20.33 20.6 20.6 20.33 20.6 20 20.6 19.67 20.33 19.4 20 19.4L20 20 20 20.6ZM17.5 4L16.9 4 16.9 11.5 17.5 11.5 18.1 11.5 18.1 4 17.5 4ZM6.5 11.5L7.1 11.5 7.1 4 6.5 4 5.9 4 5.9 11.5 6.5 11.5ZM5 4L5 4.6 8 4.6 8 4 8 3.4 5 3.4 5 4ZM16 4L16 4.6 19 4.6 19 4 19 3.4 16 3.4 16 4ZM4 20L4 20.6 20 20.6 20 20 20 19.4 4 19.4 4 20ZM12 17L12 16.4C9.29 16.4 7.1 14.21 7.1 11.5L6.5 11.5 5.9 11.5C5.9 14.87 8.63 17.6 12 17.6L12 17ZM17.5 11.5L16.9 11.5C16.9 14.21 14.71 16.4 12 16.4L12 17 12 17.6C15.37 17.6 18.1 14.87 18.1 11.5L17.5 11.5Z"/>
</svg>
