<svg width="93" height="25" viewBox="0 0 93 25" fill="none" xmlns="http://www.w3.org/2000/svg">
<path d="M15.4941 11.8555C15.4941 12.4349 15.4225 12.9525 15.2793 13.4082C15.1361 13.8639 14.9408 14.2676 14.6934 14.6191C14.4525 14.9642 14.1725 15.2604 13.8535 15.5078C13.5345 15.7552 13.1992 15.957 12.8477 16.1133C12.5026 16.2695 12.151 16.3835 11.793 16.4551C11.4414 16.5267 11.1094 16.5625 10.7969 16.5625H5.05469V14.0234H10.7969C11.1224 13.9974 11.4154 13.9323 11.6758 13.8281C11.9427 13.7174 12.1706 13.571 12.3594 13.3887C12.5482 13.2064 12.6947 12.9883 12.7988 12.7344C12.903 12.474 12.9551 12.181 12.9551 11.8555V10.7031C12.9225 10.3841 12.8542 10.0911 12.75 9.82422C12.6458 9.55729 12.5026 9.32943 12.3203 9.14062C12.1445 8.95182 11.9297 8.80534 11.6758 8.70117C11.4219 8.59049 11.1289 8.53516 10.7969 8.53516H5.07422C4.73568 8.53516 4.47852 8.62305 4.30273 8.79883C4.12695 8.97461 4.03906 9.22852 4.03906 9.56055V20H1.5V9.56055C1.5 8.90951 1.61719 8.35612 1.85156 7.90039C2.09245 7.44466 2.38867 7.07682 2.74023 6.79688C3.09831 6.51693 3.48568 6.3151 3.90234 6.19141C4.31901 6.0612 4.70312 5.99609 5.05469 5.99609H10.7969C11.3698 5.99609 11.8841 6.07096 12.3398 6.2207C12.7956 6.36393 13.196 6.55924 13.541 6.80664C13.8926 7.04753 14.1888 7.32747 14.4297 7.64648C14.6771 7.96549 14.8789 8.30078 15.0352 8.65234C15.1979 8.9974 15.3151 9.34896 15.3867 9.70703C15.4583 10.0586 15.4941 10.3906 15.4941 10.7031V11.8555ZM32.3691 14.3359C32.3691 15.1888 32.2227 15.9733 31.9297 16.6895C31.6367 17.4056 31.2298 18.0241 30.709 18.5449C30.1882 19.0658 29.5697 19.4727 28.8535 19.7656C28.1439 20.0521 27.3691 20.1953 26.5293 20.1953H23.0918C22.252 20.1953 21.474 20.0521 20.7578 19.7656C20.0417 19.4727 19.4232 19.0658 18.9023 18.5449C18.3815 18.0241 17.9714 17.4056 17.6719 16.6895C17.3789 15.9733 17.2324 15.1888 17.2324 14.3359V11.6602C17.2324 10.8138 17.3789 10.0326 17.6719 9.31641C17.9714 8.59375 18.3815 7.97526 18.9023 7.46094C19.4232 6.9401 20.0417 6.5332 20.7578 6.24023C21.474 5.94727 22.252 5.80078 23.0918 5.80078H26.5293C27.3691 5.80078 28.1439 5.94727 28.8535 6.24023C29.5697 6.5332 30.1882 6.9401 30.709 7.46094C31.2298 7.97526 31.6367 8.59375 31.9297 9.31641C32.2227 10.0326 32.3691 10.8138 32.3691 11.6602V14.3359ZM29.8301 11.6602C29.8301 11.1589 29.7487 10.7064 29.5859 10.3027C29.4297 9.89258 29.2051 9.54427 28.9121 9.25781C28.6257 8.96484 28.2773 8.74023 27.8672 8.58398C27.4635 8.42122 27.0176 8.33984 26.5293 8.33984H23.0918C22.597 8.33984 22.1445 8.42122 21.7344 8.58398C21.3307 8.74023 20.9824 8.96484 20.6895 9.25781C20.3965 9.54427 20.1686 9.89258 20.0059 10.3027C19.8496 10.7064 19.7715 11.1589 19.7715 11.6602V14.3359C19.7715 14.8372 19.8496 15.293 20.0059 15.7031C20.1686 16.1068 20.3965 16.4551 20.6895 16.748C20.9824 17.0345 21.3307 17.2591 21.7344 17.4219C22.1445 17.5781 22.597 17.6562 23.0918 17.6562H26.5098C27.0046 17.6562 27.4538 17.5781 27.8574 17.4219C28.2676 17.2591 28.6191 17.0345 28.9121 16.748C29.2051 16.4551 29.4297 16.1068 29.5859 15.7031C29.7487 15.293 29.8301 14.8372 29.8301 14.3359V11.6602ZM48.8535 14.1406C48.8535 14.9935 48.7038 15.778 48.4043 16.4941C48.1113 17.2103 47.7044 17.8288 47.1836 18.3496C46.6628 18.8639 46.0443 19.2676 45.3281 19.5605C44.612 19.8535 43.834 20 42.9941 20H36.1387C35.9564 20 35.7871 19.9674 35.6309 19.9023C35.4746 19.8372 35.3379 19.7493 35.2207 19.6387C35.11 19.5215 35.0221 19.3848 34.957 19.2285C34.8919 19.0723 34.8594 18.903 34.8594 18.7207V7.27539C34.8594 7.09961 34.8919 6.93359 34.957 6.77734C35.0221 6.62109 35.11 6.48438 35.2207 6.36719C35.3379 6.25 35.4746 6.15885 35.6309 6.09375C35.7871 6.02865 35.9564 5.99609 36.1387 5.99609H42.9941C43.834 5.99609 44.612 6.14258 45.3281 6.43555C46.0443 6.72852 46.6628 7.13542 47.1836 7.65625C47.7044 8.17057 48.1113 8.78906 48.4043 9.51172C48.7038 10.2279 48.8535 11.0091 48.8535 11.8555V14.1406ZM46.3145 11.8555C46.3145 11.3607 46.2331 10.9082 46.0703 10.498C45.9141 10.0879 45.6895 9.73958 45.3965 9.45312C45.1035 9.16016 44.752 8.93555 44.3418 8.7793C43.9382 8.61654 43.4889 8.53516 42.9941 8.53516H37.3984V17.4609H42.9941C43.4889 17.4609 43.9382 17.3828 44.3418 17.2266C44.752 17.0638 45.1035 16.8392 45.3965 16.5527C45.6895 16.2598 45.9141 15.9115 46.0703 15.5078C46.2331 15.0977 46.3145 14.6419 46.3145 14.1406V11.8555ZM66.041 14.3359C66.041 15.1888 65.8945 15.9733 65.6016 16.6895C65.3086 17.4056 64.9017 18.0241 64.3809 18.5449C63.86 19.0658 63.2415 19.4727 62.5254 19.7656C61.8158 20.0521 61.041 20.1953 60.2012 20.1953H56.7637C55.9238 20.1953 55.1458 20.0521 54.4297 19.7656C53.7135 19.4727 53.0951 19.0658 52.5742 18.5449C52.0534 18.0241 51.6432 17.4056 51.3438 16.6895C51.0508 15.9733 50.9043 15.1888 50.9043 14.3359V11.6602C50.9043 10.8138 51.0508 10.0326 51.3438 9.31641C51.6432 8.59375 52.0534 7.97526 52.5742 7.46094C53.0951 6.9401 53.7135 6.5332 54.4297 6.24023C55.1458 5.94727 55.9238 5.80078 56.7637 5.80078H60.2012C61.041 5.80078 61.8158 5.94727 62.5254 6.24023C63.2415 6.5332 63.86 6.9401 64.3809 7.46094C64.9017 7.97526 65.3086 8.59375 65.6016 9.31641C65.8945 10.0326 66.041 10.8138 66.041 11.6602V14.3359ZM63.502 11.6602C63.502 11.1589 63.4206 10.7064 63.2578 10.3027C63.1016 9.89258 62.877 9.54427 62.584 9.25781C62.2975 8.96484 61.9492 8.74023 61.5391 8.58398C61.1354 8.42122 60.6895 8.33984 60.2012 8.33984H56.7637C56.2689 8.33984 55.8164 8.42122 55.4062 8.58398C55.0026 8.74023 54.6543 8.96484 54.3613 9.25781C54.0684 9.54427 53.8405 9.89258 53.6777 10.3027C53.5215 10.7064 53.4434 11.1589 53.4434 11.6602V14.3359C53.4434 14.8372 53.5215 15.293 53.6777 15.7031C53.8405 16.1068 54.0684 16.4551 54.3613 16.748C54.6543 17.0345 55.0026 17.2591 55.4062 17.4219C55.8164 17.5781 56.2689 17.6562 56.7637 17.6562H60.1816C60.6764 17.6562 61.1257 17.5781 61.5293 17.4219C61.9395 17.2591 62.291 17.0345 62.584 16.748C62.877 16.4551 63.1016 16.1068 63.2578 15.7031C63.4206 15.293 63.502 14.8372 63.502 14.3359V11.6602ZM70.2305 18.7207C70.2305 18.8965 70.1947 19.0625 70.123 19.2188C70.0579 19.3685 69.9668 19.502 69.8496 19.6191C69.7389 19.7298 69.6055 19.8177 69.4492 19.8828C69.2995 19.9479 69.14 19.9805 68.9707 19.9805C68.7949 19.9805 68.6289 19.9479 68.4727 19.8828C68.3229 19.8177 68.1895 19.7298 68.0723 19.6191C67.9616 19.502 67.8737 19.3685 67.8086 19.2188C67.7435 19.0625 67.7109 18.8965 67.7109 18.7207C67.7109 18.5514 67.7435 18.3919 67.8086 18.2422C67.8737 18.0859 67.9616 17.9525 68.0723 17.8418C68.1895 17.7246 68.3229 17.6335 68.4727 17.5684C68.6289 17.4967 68.7949 17.4609 68.9707 17.4609C69.14 17.4609 69.2995 17.4967 69.4492 17.5684C69.6055 17.6335 69.7389 17.7246 69.8496 17.8418C69.9668 17.9525 70.0579 18.0859 70.123 18.2422C70.1947 18.3919 70.2305 18.5514 70.2305 18.7207ZM85.9238 18.7207C85.9238 18.903 85.8913 19.0723 85.8262 19.2285C85.7611 19.3848 85.6699 19.5215 85.5527 19.6387C85.4355 19.7493 85.2988 19.8372 85.1426 19.9023C84.9863 19.9674 84.8203 20 84.6445 20H78.9219C78.3815 20 77.8346 19.9414 77.2812 19.8242C76.7279 19.707 76.1908 19.528 75.6699 19.2871C75.1556 19.0397 74.6706 18.7272 74.2148 18.3496C73.7591 17.972 73.3587 17.526 73.0137 17.0117C72.6751 16.4909 72.4082 15.8984 72.2129 15.2344C72.0176 14.5638 71.9199 13.8184 71.9199 12.998V5.99609H74.459V12.998C74.459 13.7142 74.5566 14.3197 74.752 14.8145C74.9538 15.3092 75.2077 15.7227 75.5137 16.0547C75.8197 16.3867 76.1549 16.6471 76.5195 16.8359C76.8841 17.0247 77.2292 17.1647 77.5547 17.2559C77.8867 17.347 78.1764 17.4056 78.4238 17.4316C78.6777 17.4512 78.8438 17.4609 78.9219 17.4609H83.3848V5.99609H85.9238V18.7207ZM91.4414 20H88.9023V5.99609H91.4414V20Z" fill="#18181B"/>
</svg>
