<svg xmlns="http://www.w3.org/2000/svg" width="24" height="24" viewBox="0 0 24 24" fill="none"><path d="M15.5419 6.5997L7.42381 14.3272C7.06186 14.6649 6.85851 15.1228 6.85851 15.6003C6.85851 16.0778 7.06186 16.5357 7.42381 16.8734C7.78577 17.211 8.27669 17.4007 8.78857 17.4007C9.30046 17.4007 9.79137 17.211 10.1533 16.8734L18.2714 9.14585C18.9952 8.47069 19.4019 7.55498 19.4019 6.60016C19.4019 5.64533 18.9952 4.72962 18.2714 4.05446C17.5477 3.3793 16.566 3 15.5424 3C14.5188 3 13.5372 3.3793 12.8134 4.05446L4.72903 11.7505C4.18429 12.2504 3.75104 12.846 3.45429 13.5029C3.15754 14.1599 3.00316 14.8651 3.00005 15.5779C2.99694 16.2908 3.14516 16.9971 3.43616 17.6563C3.72717 18.3154 4.1552 18.9143 4.69556 19.4184C5.23592 19.9224 5.87793 20.3217 6.58454 20.5931C7.29116 20.8646 8.04839 21.0029 8.81258 21C9.57676 20.9971 10.3328 20.853 11.037 20.5762C11.7412 20.2994 12.3797 19.8953 12.9157 19.3871L21 11.6911" stroke="currentColor" stroke-width="1.2" stroke-linecap="round" stroke-linejoin="round"/></svg>