<svg xmlns="http://www.w3.org/2000/svg" width="24" height="24" viewBox="0 0 24 24" fill="none"><path d="M20.182 10.1818C20.182 16.5455 12.0002 22 12.0002 22C12.0002 22 3.81836 16.5455 3.81836 10.1818C3.81836 8.01187 4.68037 5.93079 6.21476 4.3964C7.74915 2.86201 9.83022 2 12.0002 2C14.1701 2 16.2512 2.86201 17.7856 4.3964C19.32 5.93079 20.182 8.01187 20.182 10.1818Z" stroke="currentColor" stroke-width="1.2" stroke-linecap="round" stroke-linejoin="round"/> <path d="M11.9997 12.9091C13.506 12.9091 14.727 11.6881 14.727 10.1819C14.727 8.67563 13.506 7.45459 11.9997 7.45459C10.4935 7.45459 9.27246 8.67563 9.27246 10.1819C9.27246 11.6881 10.4935 12.9091 11.9997 12.9091Z" stroke="currentColor" stroke-width="1.2" stroke-linecap="round" stroke-linejoin="round"/></svg>