<svg xmlns="http://www.w3.org/2000/svg" width="24" height="24" viewBox="0 0 24 24" fill="none"><path d="M18.3257 20.0303H5.70454C3 20.0303 3 18.8132 3 17.3257V16.4242C3 15.9284 3.40568 15.5227 3.90151 15.5227H20.1288C20.6246 15.5227 21.0303 15.9284 21.0303 16.4242V17.3257C21.0303 18.8132 21.0303 20.0303 18.3257 20.0303Z" stroke="currentColor" stroke-width="1.2" stroke-linecap="round" stroke-linejoin="round"/> <path d="M19.9023 11.9167V15.5228H4.1709V11.9167C4.1709 8.45489 6.614 5.56103 9.86847 4.86686C10.3553 4.75868 10.8601 4.70459 11.383 4.70459H12.6902C13.2131 4.70459 13.7269 4.75868 14.2138 4.86686C17.4682 5.57004 19.9023 8.45489 19.9023 11.9167Z" stroke="currentColor" stroke-width="1.2" stroke-linecap="round" stroke-linejoin="round"/> <path d="M14.2957 4.25378C14.2957 4.47015 14.2686 4.66848 14.2145 4.86681C13.7277 4.75863 13.2138 4.70454 12.691 4.70454H11.3838C10.8609 4.70454 10.356 4.75863 9.86922 4.86681C9.81513 4.66848 9.78809 4.47015 9.78809 4.25378C9.78809 3.0097 10.7978 2 12.0419 2C13.286 2 14.2957 3.0097 14.2957 4.25378Z" stroke="currentColor" stroke-width="1.2" stroke-linecap="round" stroke-linejoin="round"/> <path d="M14.747 10.1138H9.33789" stroke="currentColor" stroke-width="1.2" stroke-linecap="round" stroke-linejoin="round"/></svg>