<svg xmlns="http://www.w3.org/2000/svg" width="24" height="24" viewBox="0 0 24 24" fill="none"><path d="M17.4 20.15V18.35C17.4 17.3952 17.0207 16.4795 16.3456 15.8044C15.6705 15.1293 14.7548 14.75 13.8 14.75H6.6C5.64522 14.75 4.72955 15.1293 4.05442 15.8044C3.37928 16.4795 3 17.3952 3 18.35V20.15" stroke="currentColor" stroke-width="1.2" stroke-linecap="round" stroke-linejoin="round"/> <path d="M10.1994 12.05C12.1876 12.05 13.7994 10.4382 13.7994 8.44998C13.7994 6.46175 12.1876 4.84998 10.1994 4.84998C8.21114 4.84998 6.59937 6.46175 6.59937 8.44998C6.59937 10.4382 8.21114 12.05 10.1994 12.05Z" stroke="currentColor" stroke-width="1.2" stroke-linecap="round" stroke-linejoin="round"/> <path d="M19.2 9.34998V12.95" stroke="currentColor" stroke-width="1.2" stroke-linecap="round" stroke-linejoin="round"/> <path d="M20.9999 11.15H17.3999" stroke="currentColor" stroke-width="1.2" stroke-linecap="round" stroke-linejoin="round"/></svg>